<svg width="80" height="46" viewBox="0 0 156 46" fill="none" xmlns="http://www.w3.org/2000/svg">
<path d="M22.296 3.272C26.776 3.272 30.808 4.104 34.392 5.768L32.536 13.576L31.704 13.704C29.6133 12.5093 27.736 11.656 26.072 11.144C24.4507 10.5893 22.7013 10.312 20.824 10.312C17.0267 10.312 14.2533 11.4427 12.504 13.704C10.7547 15.9653 9.88 19.6773 9.88 24.84C9.88 28.2533 10.2427 30.9627 10.968 32.968C11.736 34.9733 12.9093 36.4453 14.488 37.384C16.0667 38.28 18.1573 38.728 20.76 38.728C21.656 38.728 22.488 38.664 23.256 38.536C24.0667 38.408 25.048 38.1733 26.2 37.832L26.328 34.312L26.2 27.784L34.2 27.208L34.008 32.968L34.2 43.016C29.08 44.7227 24.3653 45.576 20.056 45.576C13.656 45.576 8.83467 43.8267 5.592 40.328C2.392 36.8293 0.792 31.816 0.792 25.288C0.792 18.1627 2.648 12.7227 6.36 8.968C10.1147 5.17067 15.4267 3.272 22.296 3.272ZM41.73 32.712L41.41 15.816L49.794 15.112L49.41 31.88L49.794 45H41.282L41.73 32.712ZM45.762 0.647999C47.0847 0.647999 48.1087 1.032 48.834 1.8C49.602 2.568 49.986 3.63467 49.986 5C49.986 6.45067 49.5807 7.60266 48.77 8.456C47.9593 9.30933 46.85 9.736 45.442 9.736C44.034 9.736 42.946 9.352 42.178 8.584C41.4527 7.816 41.09 6.728 41.09 5.32C41.09 3.912 41.4953 2.78133 42.306 1.928C43.1593 1.07467 44.3113 0.647999 45.762 0.647999ZM68.2735 20.616L68.0815 31.88L68.5295 45H60.0175L60.5295 32.648L60.4015 20.616H55.9215L55.6015 20.168L56.0495 15.496H60.3375L60.2735 12.872C60.2308 9.032 61.2975 6.06667 63.4735 3.976C65.6922 1.88533 68.8282 0.839996 72.8815 0.839996C74.3322 0.839996 75.9108 1.01066 77.6175 1.352L77.1055 7.432L76.5295 7.816C74.9508 7.13333 73.4788 6.792 72.1135 6.792C69.6815 6.792 68.4442 8.30667 68.4015 11.336L68.3375 15.496H83.6335L83.8895 15.944L83.5055 20.616H68.2735ZM90.8735 38.728C92.2388 38.728 93.6682 38.3653 95.1615 37.64L95.8655 38.28L95.0335 43.336C92.8575 44.4453 90.6388 45.128 88.3775 45.384C82.6175 44.7867 79.7375 41.9707 79.7375 36.936L80.0575 31.624L79.9935 20.616H76.0255L75.7055 20.168L76.1535 15.496H79.9295V10.568L87.6735 8.072L88.2495 8.584L88.0575 15.496H95.6735L95.9295 15.944L95.5455 20.616H87.9295L87.5455 34.952C87.5455 36.3173 87.8015 37.2987 88.3135 37.896C88.8255 38.4507 89.6788 38.728 90.8735 38.728ZM123.069 31.176L105.789 31.304C106.173 36.6373 108.882 39.304 113.917 39.304C116.562 39.304 119.506 38.5573 122.749 37.064L123.453 37.512L122.173 43.848C118.93 45.0427 115.88 45.64 113.021 45.64C108.328 45.64 104.637 44.2747 101.949 41.544C99.3037 38.8133 97.981 35.0373 97.981 30.216C97.981 25.4373 99.2823 21.6613 101.885 18.888C104.488 16.072 108.008 14.664 112.445 14.664C116.242 14.664 119.165 15.7093 121.213 17.8C123.304 19.848 124.349 22.728 124.349 26.44C124.349 27.4213 124.242 28.6587 124.029 30.152L123.069 31.176ZM116.925 25.48C116.925 23.7733 116.541 22.4933 115.773 21.64C115.005 20.744 113.874 20.296 112.381 20.296C110.717 20.296 109.33 20.8507 108.221 21.96C107.112 23.0267 106.365 24.584 105.981 26.632L116.797 26.376L116.925 25.48ZM141.929 14.664C145.214 14.664 147.774 15.4107 149.609 16.904C151.486 18.3547 152.425 20.4027 152.425 23.048C152.425 23.816 152.297 26.248 152.041 30.344C151.998 31.5387 151.934 32.776 151.849 34.056C151.763 35.2933 151.721 36.36 151.721 37.256C151.721 37.9813 151.827 38.4933 152.041 38.792C152.254 39.048 152.638 39.176 153.193 39.176C153.619 39.176 154.174 39.0907 154.857 38.92L155.497 39.432L154.729 43.912C153.363 44.808 151.806 45.3413 150.057 45.512C148.777 45.384 147.71 44.936 146.857 44.168C146.003 43.3573 145.427 42.248 145.128 40.84H144.681C142.547 43.1013 140.35 44.68 138.089 45.576C135.017 45.5333 132.606 44.7227 130.857 43.144C129.107 41.5653 128.233 39.4107 128.233 36.68C128.233 34.5467 128.766 32.8827 129.833 31.688C130.942 30.4507 132.606 29.6187 134.825 29.192L144.617 27.336V24.712C144.617 21.9387 143.251 20.552 140.521 20.552C139.198 20.552 137.79 20.8507 136.297 21.448C134.846 22.0453 133.203 22.984 131.369 24.264L130.729 23.88L129.769 18.248C131.603 17.096 133.566 16.2213 135.657 15.624C137.747 14.984 139.838 14.664 141.929 14.664ZM137.769 33.096C137.086 33.2667 136.574 33.5653 136.233 33.992C135.934 34.376 135.785 34.9733 135.785 35.784C135.785 36.8933 136.083 37.768 136.681 38.408C137.278 39.0053 138.11 39.304 139.177 39.304C140.841 39.304 142.59 38.3227 144.425 36.36L144.553 31.624L137.769 33.096Z" fill="white"/>
</svg>
